<svg xmlns="http://www.w3.org/2000/svg" viewBox="0 0 23.789 23.425"><title>Explosive Success symbol</title><g transform="translate(-187.808 -87.463)"><path d="M198.557 110.75c-.083-.134-.475-.243-.871-.243-1.407 0-3.416-.708-4.556-1.605-1.569-1.234-3.953-3.614-3.953-3.946 0-.523.703-.261 1.472.548 1.002 1.055 3.126 2.136 4.183 2.129 3.27-.022 6.526-1.004 6.269-1.89-.288-.989-.301-2.908-.024-3.426.83-1.553 3.46-2.078 5.034-1.005 1.396.954 1.91 2.152 1.766 4.123-.133 1.837-.821 2.873-2.318 3.493-.415.172-.823.53-.908.797-.084.266-.535.6-1 .742-1.21.367-4.915.574-5.094.284zm9.72-4.915c1.193-2.425 1.238-2.616 1.184-5.118-.05-2.374-.102-2.584-.931-3.786-.483-.7-1.276-1.461-1.762-1.693-.81-.387-.958-.385-1.802.015-.59.28-1.603.437-2.83.437-1.857 0-1.936-.027-2.914-1.005-1.679-1.68-1.673-4.232.013-5.919.681-.681.919-.749 2.619-.749 1.755 0 1.98.07 3.658 1.15 1.634 1.05 2.57 1.938 4.634 4.39.4.477.921 1.528 1.156 2.338.364 1.252.38 1.73.109 3.213-.176.958-.42 2.388-.545 3.178-.247 1.575-1.424 3.527-2.218 3.68-.265.051-.432-.008-.372-.13zm-17.67-1.758c-.45-.32-1.264-.974-1.808-1.454l-.991-.872.134-2.832c.151-3.187.456-5.208.913-6.043.17-.31.936-.984 1.704-1.497.768-.512 1.753-1.31 2.19-1.774 1.227-1.303 2.665-1.918 4.762-2.037l1.853-.105-1.456.523c-1.139.41-1.78.886-2.953 2.195-1.54 1.72-1.923 2.557-2.215 4.847-.203 1.598.183 2.779.908 2.779.768 0 2.067 1.214 2.41 2.253.488 1.48.006 2.432-1.96 3.87-1.242.91-2.354.956-3.49.147z"/></g></svg>
