<svg xmlns="http://www.w3.org/2000/svg" viewBox="0 0 22.568 23.444"><title>Opportunity symbol</title><g transform="translate(-83.637 -56.98)"><path d="M91.767 80.268c-.917-.392-1.417-1.351-1.417-2.715 0-1.704.681-2.173 2.92-2.011 1.777.128 1.91.045 2.477-1.564.355-1.007.34-1.127-.253-2.094-.786-1.278-.79-1.422-.051-1.418.387.002 1.035.505 1.852 1.436 1.186 1.352 1.585 2.265.992 2.265-.145 0-.264.34-.264.758 0 .708-1.426 3.848-2.2 4.845-.408.527-3.192.868-4.056.498zm9.96-3.895c-1.27-.508-1.758-2.223-1.024-3.595.263-.49.168-.683-.761-1.55-.584-.544-1.582-1.138-2.218-1.32-1.786-.508-1.759-.704.124-.906 1.294-.139 2.051-.078 2.976.237 1.613.55 3.235 1.515 4.133 2.46.69.725.707.817.478 2.443-.132.929-.335 1.783-.452 1.899-.285.28-2.756.533-3.256.332zM84.41 74.29c-.372-.401-.673-1.119-.75-1.786-.181-1.599.62-2.305 2.614-2.305 1.185 0 1.571.118 2.094.64.352.353.877.717 1.167.809.87.276 2.635-.418 3.464-1.362.425-.485.969-.88 1.208-.88.873 0-.18 3.361-1.28 4.082-.823.54-4.98 1.46-6.626 1.468-1.023.004-1.39-.125-1.891-.666zm4.633-5.427c-.355-.149-1.502-.927-2.55-1.73-1.915-1.467-2.23-1.988-2.23-3.694 0-1.324 1.988-2.573 3.297-2.071.57.219 1.457 1.994 1.682 3.366.165 1.005.305 1.162 1.617 1.827.79.4 1.832.728 2.315.728 1.24 0 1.09.465-.353 1.103-1.49.66-2.91.836-3.778.471zm13.137-1.466a1.774 1.774 0 0 1-.9-1.208c-.15-.757-.22-.8-1.091-.658-.512.083-1.39.52-1.952.972-.565.454-1.256.783-1.547.737-.502-.08-.49-.154.252-1.72.865-1.824.971-1.88 4.657-2.5 1.744-.293 2.03-.275 3.204.205 1.137.465 1.298.631 1.374 1.406.193 1.984-.67 3.193-2.268 3.176-.546-.006-1.324-.19-1.73-.41zm-8.502-.983c-1.289-1.689-1.493-2.532-1.045-4.31.219-.87.777-2.35 1.24-3.291.766-1.558.922-1.719 1.75-1.797 2.366-.226 3.457.64 3.457 2.745 0 1.183-1.349 2.678-2.65 2.938-1.118.224-1.706 1.534-1.493 3.329.183 1.55-.267 1.688-1.26.386z"/></g></svg>
