<svg xmlns="http://www.w3.org/2000/svg" viewBox="0 0 21.91 23.494"><title>Strife symbol</title><g transform="translate(-62.251 -77.471)"><path d="M68.193 100.364c-1.742-.716-3.42-1.951-3.55-2.615-.047-.239-.483-1.094-.969-1.9-1.119-1.859-1.566-3.717-1.383-5.74.265-2.927 3.575-8.669 4.997-8.669.511 0 6.304-2.88 6.304-3.133 0-.258 1.99-.836 2.876-.836.797 0 1.357.726 1.357 1.757 0 1.833-.916 2.56-3.572 2.828-3.571.363-6.091 1.765-6.748 3.755-.163.492-.503.961-.756 1.042-1.106.35-2.224 4.282-1.645 5.786.287.745 2.343 3.353 2.644 3.353.087 0 .446-.744.799-1.653.352-.91.956-1.97 1.343-2.357 1.08-1.081 5.5-2.287 5.907-1.612.066.109-.13 1.3-.435 2.646l-.554 2.448 1.046 1.079 1.045 1.08 1.384-1.514C79.857 94.387 81 92.292 81 91.129c0-1.4-1-2.947-3.184-4.919-1.851-1.671-2.107-2.012-2.107-2.807 0-1.18.66-1.212.917-.045.105.473.249.711.32.53.195-.497.825-.399 1.132.176.15.28 1.08 1.045 2.07 1.702 2.138 1.422 2.433 1.735 3.336 3.537.72 1.438.858 2.407.453 3.187-.132.253-.396.988-.589 1.634-.475 1.6-2.201 4.207-2.981 4.503-.35.134-.958.662-1.349 1.175-1.16 1.52-1.425 1.473-4.194-.755-2.58-2.074-2.82-2.454-2.82-4.464 0-1.116-.386-.634-.901 1.126-.341 1.164-.362 1.601-.11 2.3.247.68.238 1.09-.042 1.936-.416 1.263-.628 1.295-2.758.42z"/></g></svg>
